<svg xmlns="http://www.w3.org/2000/svg"
	xmlns:xlink="http://www.w3.org/1999/xlink" version="1.1" id="Layer_1" x="0px" y="0px" viewBox="0 0 472.615 472.615" fill="rgba(255, 255, 255, .6)" style="enable-background:new 0 0 472.615 472.615;" xml:space="preserve">
	<g>
		<g>
			<path d="M306.807,19.415H41.011C18.396,19.415,0,37.806,0,60.421c0,22.616,18.396,41.017,41.011,41.017h286.345V39.964    C327.356,28.636,318.14,19.415,306.807,19.415z"/>
		</g>
	</g>
	<g>
		<g>
			<path d="M440.779,213v-44.097c0-25.866-21.045-46.916-46.917-46.916h-45.958H337.63H41.011c-15.761,0-30.111-6.005-41.011-15.783    v300.08c0,25.867,21.044,46.917,46.916,46.917h346.946c25.872,0,46.917-21.05,46.917-46.917V363.18H329.538l-39.753-75.09    L329.538,213H440.779z M220.389,408.673H39.526v-20.549h180.863V408.673z"/>
		</g>
	</g>
	<g>
		<g>
			<path d="M471.451,233.549H341.91l-28.877,54.542l28.877,54.542h129.541c0.643,0,1.165-0.522,1.165-1.164V234.713    C472.615,234.071,472.094,233.549,471.451,233.549z M383.078,312.996c-13.754,0-24.905-11.15-24.905-24.905    c0-13.756,11.151-24.906,24.905-24.906c13.755,0,24.906,11.15,24.906,24.906C407.984,301.846,396.833,312.996,383.078,312.996z"/>
		</g>
	</g>
	<g>
	</g>
	<g>
	</g>
	<g>
	</g>
	<g>
	</g>
	<g>
	</g>
	<g>
	</g>
	<g>
	</g>
	<g>
	</g>
	<g>
	</g>
	<g>
	</g>
	<g>
	</g>
	<g>
	</g>
	<g>
	</g>
	<g>
	</g>
	<g>
	</g>
</svg>