<svg width="200" height="200" viewBox="0 0 200 200" fill="none" xmlns="http://www.w3.org/2000/svg">
<path d="M200 99.6484C200 100.352 199.648 100.703 199.648 101.055C199.844 115.313 186.875 124.648 172.617 124.648H134.375C124.023 124.648 115.625 133.398 115.625 143.75C115.625 145.078 115.781 146.367 116.016 147.617C116.875 151.602 118.555 155.117 120.273 159.297C122.617 164.688 125 170.039 125 175.703C125 188.164 116.562 199.414 104.141 199.922C102.773 199.961 101.367 200 100 200C44.7656 200 0 155.234 0 100C0 44.7656 44.7656 0 100 0C155.234 0 200 44.7656 200 100V99.6484ZM37.5 99.6484C30.5977 99.6484 25 105.586 25 112.148C25 119.414 30.5977 124.648 37.5 124.648C44.4141 124.648 50 119.414 50 112.148C50 105.586 44.4141 99.6484 37.5 99.6484ZM50 74.6484C56.9141 74.6484 62.5 69.4141 62.5 62.1484C62.5 55.5859 56.9141 49.6484 50 49.6484C43.0859 49.6484 37.5 55.5859 37.5 62.1484C37.5 69.4141 43.0859 74.6484 50 74.6484ZM100 24.6484C93.0859 24.6484 87.5 30.5977 87.5 37.1484C87.5 44.4141 93.0859 49.6484 100 49.6484C106.914 49.6484 112.5 44.4141 112.5 37.1484C112.5 30.5977 106.914 24.6484 100 24.6484ZM150 74.6484C156.914 74.6484 162.5 69.4141 162.5 62.1484C162.5 55.5859 156.914 49.6484 150 49.6484C143.086 49.6484 137.5 55.5859 137.5 62.1484C137.5 69.4141 143.086 74.6484 150 74.6484Z" fill="white"/>
</svg>
