<svg width="200" height="200" viewBox="0 0 200 200" fill="none" xmlns="http://www.w3.org/2000/svg">
<path d="M127.617 157.695C119.023 160.781 109.688 162.5 100 162.5C90.3125 162.5 80.9766 160.781 72.3828 157.695C71.9141 157.656 72.1484 157.617 72.0703 157.578C60.3125 153.281 49.8438 146.328 41.3672 137.5C27.3594 122.891 18.75 103.086 18.75 81.25C18.75 36.375 55.1172 0 100 0C144.883 0 181.25 36.375 181.25 81.25C181.25 103.086 172.305 122.891 158.633 137.5C158.242 137.891 157.852 138.32 157.461 138.711C149.102 147.031 138.945 153.594 127.617 157.695ZM92.1484 43.3984V46.0938C89.9609 46.5625 87.5391 47.2266 85.9375 48.0859C80.1172 50.7422 75.0391 55.6641 73.7891 62.8125C73.0859 66.7969 73.4766 70.6641 75.1172 74.1406C76.7578 77.5781 79.2969 80 81.875 81.7578C86.4062 84.8438 92.3828 86.6406 96.9531 88.0078L97.8125 88.2422C103.281 89.9219 106.953 91.1328 109.258 92.8125C110.234 93.5156 110.586 94.0625 110.703 94.4141C110.859 94.7266 111.094 95.4297 110.82 96.9922C110.586 98.3594 109.844 99.5312 107.695 100.43C105.313 101.445 101.445 101.953 96.4453 101.172C94.1016 100.781 89.9219 99.375 86.2109 98.125C85.3516 97.8125 84.4922 97.5391 83.7109 97.2656C79.6094 95.8984 75.1953 98.125 73.8281 102.227C72.4609 106.328 74.6875 110.742 78.7891 111.758C79.2578 112.266 79.8438 112.461 80.5078 112.695C83.2422 113.75 88.4375 115.391 92.1484 116.25V118.75C92.1484 123.086 95.6641 126.602 99.6484 126.602C104.336 126.602 107.852 123.086 107.852 118.75V116.602C109.922 116.211 111.953 115.273 113.828 114.805C120 112.188 124.922 107.109 126.211 99.6875C126.914 95.625 126.602 91.7188 125.039 88.1641C123.516 84.6484 121.055 82.0703 118.438 80.1953C113.711 76.7188 107.383 74.8438 102.656 73.3984L101.992 73.3203C96.7969 71.6406 93.0469 70.4688 90.6641 68.8281C89.6484 68.125 89.3359 67.6562 89.2578 67.4609C89.1797 67.3047 88.9453 66.8359 89.1797 65.5078C89.3359 64.7266 89.9219 63.4375 92.3828 62.3438C94.5703 61.2109 98.7891 60.5859 103.555 60.9766C105.273 61.6016 110.547 62.6172 112.07 63.0078C116.211 64.1406 120.508 61.6406 121.602 57.4609C122.734 53.3203 120.234 49.0234 116.055 47.9297C114.336 47.4609 110.43 46.6797 107.852 46.2109V43.75C107.852 39.4141 104.336 35.8984 100 35.8984C95.6641 35.8984 92.1484 39.4141 92.1484 43.75V43.3984ZM18.75 137.5H24.9922C32.5898 147.617 42.1875 156.133 53.2031 162.5H25V175H175V162.5H146.797C157.461 156.133 167.422 147.617 175 137.5H181.25C191.602 137.5 200 145.898 200 156.25V181.25C200 191.602 191.602 200 181.25 200H18.75C8.39453 200 0 191.602 0 181.25V156.25C0 145.898 8.39453 137.5 18.75 137.5Z" fill="white"/>
</svg>
