<svg width="200" height="178" viewBox="0 0 200 178" fill="none" xmlns="http://www.w3.org/2000/svg">
<g clip-path="url(#clip0_80_31)">
<path d="M197.292 116.771C192.736 110.587 184.049 109.25 177.872 113.83L136.309 144.445H94.434C91.3965 144.445 89.191 141.927 89.191 138.893C89.191 135.855 91.7083 133.337 94.434 133.337H121.604C126.847 133.337 132.281 129.559 133.191 124.094C134.319 117.15 128.983 111.115 122.212 111.115H66.3542C57.2917 111.115 47.9097 114.327 40.6181 120.23L24.4722 133.334L5.24306 133.021C2.51771 133.021 0 135.868 0 138.889V172.215C0 175.278 2.51771 177.778 5.24306 177.778H125.417C133.066 177.778 140.667 175.282 146.84 170.74L193.75 136.184C200.521 131.632 201.84 122.951 197.292 116.771ZM96.9792 60.7639C94.3403 60.3819 90.8681 59.1319 87.8125 58.0208L86.1111 57.4306C81.7708 55.5903 77.0139 58.1597 75.4861 62.1875C73.9583 66.2153 76.2226 71.2847 80.5521 72.8264L82.1684 73.4014C85.1149 74.4642 88.3767 75.5177 91.6788 76.2875V80.5556C91.6788 85.1562 95.4045 88.8889 100.005 88.8889C104.606 88.8889 108.339 85.1562 108.339 80.5556V76.9444C117.113 74.9573 123.227 69.3576 124.345 61.0694C127.362 43.691 110.842 38.9653 101.977 36.434L100.139 35.7986C91.0069 33.2083 91.5278 32.0903 91.7708 30.6632C92.1722 28.3139 97.0833 27.1701 102.955 28.0969C104.669 28.3682 106.903 28.9813 109.778 29.9795C114.128 31.466 118.878 29.1767 120.375 24.8267C121.872 20.4767 119.573 15.733 115.222 14.226C112.583 13.3139 110.389 12.7128 108.34 12.2396V8.33333C108.34 3.73264 104.608 0 100.007 0C95.4063 0 91.6806 3.73264 91.6806 8.33333V11.9861C82.9167 13.9687 76.7708 19.5312 75.0347 27.8229C72.3611 45 89.1319 49.9306 95.4514 51.8056L97.7076 52.4566C108.701 55.6031 108.524 56.5851 108.242 58.2344C107.847 60.5903 102.951 61.7361 96.9792 60.7639Z" fill="white"/>
</g>
<defs>
<clipPath id="clip0_80_31">
<rect width="200" height="177.778" fill="white"/>
</clipPath>
</defs>
</svg>
