<svg width="200" height="178" viewBox="0 0 200 178" fill="none" xmlns="http://www.w3.org/2000/svg">
<g clip-path="url(#clip0_80_35)">
<path d="M133.195 111.111C111.188 111.111 114.413 97.3368 100.094 97.2153C85.323 97.3428 89.0487 111.111 66.7917 111.111C53.1563 111.111 47.4445 104.719 45.191 102.49L93.941 62.1771C92.798 61.5906 82.948 55.8576 67.8126 55.8576C63.448 55.8576 59.0695 56.3427 54.7813 57.3195L41.382 60.3903C40.5445 60.5845 39.707 60.6775 38.882 60.6775C33.3577 60.6775 27.7848 56.2296 27.7848 49.5525C27.7848 44.49 31.2674 39.9101 36.4098 38.7331L49.8091 35.6622C55.7327 34.3067 61.7744 33.6355 67.7987 33.6355C109.5 33.6355 129.396 63.4515 129.639 64.198L137.813 74.0625C145.104 83.7847 148.82 95.0695 149.653 106.84C145.313 109.514 139.479 111.111 133.195 111.111ZM4.57764e-05 137.847C4.57764e-05 132.59 3.75699 127.92 9.11462 126.938C25.9619 123.851 24.9133 116.701 33.2813 116.701C41.9688 116.701 44.1112 127.74 66.6772 127.74C83.5487 127.74 91.9272 120.08 92.1563 119.885C94.2886 117.748 97.1077 116.695 99.941 116.695C108.535 116.695 110.91 127.74 133.344 127.74C150.215 127.74 158.583 120.091 158.833 119.897C160.96 117.759 163.799 116.686 166.632 116.686C169.435 116.686 172.229 117.737 174.403 119.777C184.476 128.892 200.01 124.131 200.01 137.86C200.01 143.444 195.576 148.996 189 148.996C185.608 148.996 175.233 146.447 166.688 141.413C159.896 145.417 148.82 149.688 133.333 149.688C117.847 149.688 106.771 145.132 100 141.125C93.2188 145.128 82.1285 149.663 66.6667 149.663C51.1841 149.663 40.0834 145.118 33.3126 141.115C24.7327 146.174 14.3056 148.694 11.007 148.694C4.44449 148.993 4.57764e-05 143.507 4.57764e-05 137.847ZM166.979 77.7778C154.705 77.7778 144.757 67.8299 144.757 55.5556C144.757 43.2813 154.705 33.3333 166.979 33.3333C179.254 33.3333 189.201 43.2813 189.201 55.5556C189.201 67.8125 178.941 77.7778 166.979 77.7778Z" fill="white"/>
</g>
<defs>
<clipPath id="clip0_80_35">
<rect width="200" height="177.778" fill="white" transform="matrix(-1 0 0 1 200 0)"/>
</clipPath>
</defs>
</svg>
